# xmcd
#
# Track frame offsets: 
#        150
#        17600
#        36092
#        54614
#        74207
#        96506
#        117418
#        138542
#        154913
#        175735
#
# Disc length: 2668 seconds
#
# Revision: 0
# Processed by: cddbd v1.5.2PL0 Copyright (c) Steve Scherf et al.
# Submitted via: ExactAudioCopy v1.0b1
#
DISCID=920a6a0a
DTITLE=The Patrik Jansson Band - The Patrik Jansson Band
DYEAR=2011
DGENRE=Blues
TTITLE0=That's What I Say
TTITLE1=I'll Keep On Moving
TTITLE2=Just Move On
TTITLE3=Hard Life On The Road
TTITLE4=Separate Ways
TTITLE5=Please Tell Me
TTITLE6=Instrumental
TTITLE7=Come Along For The Ride
TTITLE8=Something Special
TTITLE9=A Wonder Of Nature
EXTD=
EXTT0=
EXTT1=
EXTT2=
EXTT3=
EXTT4=
EXTT5=
EXTT6=
EXTT7=
EXTT8=
EXTT9=
PLAYORDER=
